<?xml version="1.0" encoding="UTF-8"?><svg id="a" xmlns="http://www.w3.org/2000/svg" viewBox="0 0 147.7 64"><defs><style>.c{fill:#88cbd6;}.d{fill:#88cad5;}.e{fill:#fff;stroke:#fff;}.e,.f,.g{stroke-width:.2px;}.e,.g{stroke-miterlimit:10;}.f{fill:#231f20;stroke:#231f20;stroke-miterlimit:1;}.g{fill:none;stroke:#89cad5;}</style></defs><rect class="f" x=".1" y=".1" width="147.5" height="63.8"/><g id="b"><path class="e" d="M92.5,44.7h5.9V19.3h-5.9v25.4Z"/><path class="e" d="M92.5,25.3h25.1v-5.9h-25.1v5.9Z"/><path class="e" d="M111.7,44.7h5.9V19.3h-5.9v25.4Z"/><path class="c" d="M102,53.6h5.9V28.2h-5.9v25.4Z"/><path class="c" d="M102,34.1h25.1v-5.9h-25.1v5.9Z"/><path class="d" d="M121.4,53.6h5.9V28.2h-5.9v25.4Z"/><path class="e" d="M49.4,44.7h5.9V19.3h-5.9v25.4Z"/><path class="e" d="M70.9,44.7h5.9V19.3h-5.9v25.4Z"/><path class="e" d="M81.6,44.7h5.9V19.3h-5.9v25.4Z"/><path class="e" d="M49.4,44.7h27.4v-5.9h-27.4v5.9Z"/><path class="e" d="M60.2,44.7h5.9v-15.2h-5.9v15.2Z"/><path class="e" d="M38.7,44.7h5.9V19.3h-5.9v25.4Z"/><path class="e" d="M25.1,25.3h19.5v-5.9H25.1v5.9Z"/><path class="g" d="M92.5,19.3h24.5l10.3,8.9v25.4h-24.5l-10.3-8.9V19.3Z"/><path class="c" d="M81.6,53.9h5.9v-5.9h-5.9v5.9Z"/></g></svg>