<svg xmlns="http://www.w3.org/2000/svg" xmlns:xlink="http://www.w3.org/1999/xlink" version="1.1" id="Layer_1" x="0px" y="0px" style="enable-background:new 0 0 170.1 170.1;" xml:space="preserve" viewBox="33.4 67.2 102.7 35.3">
<style type="text/css">
	.st0{fill:#231F20;}
	.st1{fill:#71CCD9;}
	.st2{fill:none;stroke:#71CCD9;stroke-miterlimit:1;}
</style>
<g id="surface1">
	<path class="st0" d="M100.8,93.1h5.9V67.7h-5.9V93.1z"/>
	<path class="st0" d="M100.8,73.7h25.1v-5.9h-25.1V73.7z"/>
	<path class="st0" d="M120,93.1h5.9V67.7H120V93.1z"/>
	<path class="st1" d="M110.3,102h5.9V76.6h-5.9V102z"/>
	<path class="st1" d="M110.3,82.5h25.1v-5.9h-25.1V82.5z"/>
	<path class="st1" d="M129.7,102h5.9V76.6h-5.9V102z"/>
	<path class="st0" d="M57.7,93.1h5.9V67.7h-5.9V93.1z"/>
	<path class="st0" d="M79.2,93.1h5.9V67.7h-5.9V93.1z"/>
	<path class="st0" d="M89.9,93.1h5.9V67.7h-5.9V93.1z"/>
	<path class="st0" d="M57.7,93.1h27.4v-5.9H57.7V93.1z"/>
	<path class="st0" d="M68.5,93.1h5.9V77.9h-5.9V93.1z"/>
	<path class="st0" d="M47,93.1h5.9V67.7H47V93.1z"/>
	<path class="st0" d="M33.4,73.7h19.5v-5.9H33.4V73.7z"/>
	<path class="st2" d="M100.8,67.7h24.5l10.3,8.9V102h-24.5l-10.3-8.9V67.7z"/>
	<path class="st1" d="M89.9,102.3h5.9v-5.9h-5.9V102.3z"/>
</g>
</svg>